<svg width="299" height="39" viewBox="0 0 299 39" fill="none" xmlns="http://www.w3.org/2000/svg">
<path d="M16.568 4.016V4.976C15.48 5.008 14.648 5.136 14.072 5.36C13.528 5.552 13.16 5.936 12.968 6.512C12.776 7.056 12.68 7.92 12.68 9.104V33.68C12.68 34.608 12.744 35.312 12.872 35.792C13.032 36.24 13.304 36.544 13.688 36.704C14.072 36.832 14.648 36.896 15.416 36.896H17.384C18.344 36.896 19.304 36.608 20.264 36.032C21.224 35.456 22.12 34.656 22.952 33.632C23.784 32.576 24.504 31.376 25.112 30.032C25.72 28.656 26.152 27.184 26.408 25.616H27.512C27.416 26.736 27.368 28.176 27.368 29.936C27.368 30.736 27.384 31.888 27.416 33.392C27.448 34.864 27.544 36.4 27.704 38C26.072 37.936 24.232 37.904 22.184 37.904C20.136 37.872 18.312 37.856 16.712 37.856C15.88 37.856 14.824 37.856 13.544 37.856C12.264 37.856 10.872 37.872 9.368 37.904C7.864 37.904 6.344 37.92 4.808 37.952C3.272 37.952 1.832 37.968 0.488 38V37.04C1.48 36.976 2.216 36.848 2.696 36.656C3.208 36.464 3.544 36.08 3.704 35.504C3.896 34.928 3.992 34.064 3.992 32.912V9.104C3.992 7.92 3.896 7.056 3.704 6.512C3.544 5.936 3.208 5.552 2.696 5.36C2.216 5.136 1.48 5.008 0.488 4.976V4.016C1.352 4.048 2.504 4.08 3.944 4.112C5.384 4.144 6.92 4.16 8.552 4.16C10.056 4.16 11.528 4.144 12.968 4.112C14.408 4.08 15.608 4.048 16.568 4.016ZM54.3519 12.608V32.768C54.3519 34.208 54.5599 35.28 54.9759 35.984C55.4239 36.656 56.1759 36.992 57.2319 36.992V38C56.2399 37.904 55.2479 37.856 54.2559 37.856C52.7839 37.856 51.4079 37.904 50.1279 38C48.8799 38.096 47.6959 38.272 46.5759 38.528V34.64C45.8079 36.08 44.7519 37.12 43.4079 37.76C42.0959 38.368 40.5919 38.672 38.8959 38.672C37.4879 38.672 36.3519 38.496 35.4879 38.144C34.6559 37.792 34.0159 37.328 33.5679 36.752C33.0559 36.176 32.6879 35.408 32.4639 34.448C32.2399 33.456 32.1279 32.16 32.1279 30.56V18.368C32.1279 16.928 31.9199 15.872 31.5039 15.2C31.0879 14.496 30.3359 14.144 29.2479 14.144V13.136C30.2719 13.232 31.2639 13.28 32.2239 13.28C33.6959 13.28 35.0719 13.232 36.3519 13.136C37.6319 13.008 38.8159 12.832 39.9039 12.608V32.864C39.9039 33.6 39.9839 34.224 40.1439 34.736C40.3039 35.248 40.5759 35.648 40.9599 35.936C41.3439 36.224 41.8559 36.368 42.4959 36.368C43.2319 36.368 43.9039 36.176 44.5119 35.792C45.1199 35.408 45.6159 34.88 45.9999 34.208C46.3839 33.504 46.5759 32.72 46.5759 31.856V18.368C46.5759 16.928 46.3679 15.872 45.9519 15.2C45.5359 14.496 44.7839 14.144 43.6959 14.144V13.136C44.7199 13.232 45.7119 13.28 46.6719 13.28C48.1439 13.28 49.5199 13.232 50.7999 13.136C52.0799 13.008 53.2639 12.832 54.3519 12.608ZM71.8363 12.464C73.1803 12.464 74.3803 12.608 75.4363 12.896C76.4923 13.152 77.3563 13.488 78.0283 13.904C78.8603 14.416 79.5323 15.072 80.0443 15.872C80.5563 16.672 80.8123 17.6 80.8123 18.656C80.8123 19.872 80.4123 20.896 79.6123 21.728C78.8123 22.528 77.8043 22.928 76.5883 22.928C75.3403 22.928 74.3483 22.56 73.6123 21.824C72.9083 21.088 72.5563 20.144 72.5563 18.992C72.5563 17.872 72.9083 16.928 73.6123 16.16C74.3163 15.392 75.1483 14.88 76.1083 14.624C75.8523 14.368 75.5163 14.16 75.1003 14C74.7163 13.84 74.2523 13.76 73.7083 13.76C72.6203 13.76 71.7083 14.08 70.9723 14.72C70.2363 15.328 69.6283 16.176 69.1483 17.264C68.7003 18.32 68.3643 19.52 68.1403 20.864C67.9483 22.176 67.8523 23.536 67.8523 24.944C67.8523 27.312 68.1563 29.168 68.7643 30.512C69.4043 31.824 70.1883 32.752 71.1163 33.296C72.0763 33.808 73.0523 34.064 74.0443 34.064C74.5563 34.064 75.1483 33.984 75.8203 33.824C76.4923 33.664 77.1963 33.328 77.9323 32.816C78.7003 32.304 79.4203 31.536 80.0923 30.512L80.9083 30.8C80.5563 32.048 79.9643 33.28 79.1323 34.496C78.3003 35.712 77.2283 36.72 75.9163 37.52C74.6043 38.288 73.0043 38.672 71.1163 38.672C69.0043 38.672 67.0843 38.24 65.3563 37.376C63.6603 36.512 62.3003 35.12 61.2763 33.2C60.2523 31.28 59.7402 28.768 59.7402 25.664C59.7402 22.656 60.2682 20.192 61.3242 18.272C62.3803 16.32 63.8203 14.864 65.6443 13.904C67.5003 12.944 69.5643 12.464 71.8363 12.464ZM89.7883 38.336C88.3163 38.336 87.1003 38.064 86.1403 37.52C85.1803 36.944 84.4763 36.192 84.0283 35.264C83.5803 34.336 83.3563 33.344 83.3563 32.288C83.3563 30.944 83.6603 29.84 84.2683 28.976C84.9083 28.112 85.7243 27.424 86.7163 26.912C87.7083 26.368 88.7483 25.92 89.8363 25.568C90.9243 25.216 91.9643 24.88 92.9563 24.56C93.9483 24.208 94.7483 23.808 95.3563 23.36C95.9643 22.88 96.2682 22.272 96.2682 21.536V17.552C96.2682 16.848 96.1562 16.192 95.9323 15.584C95.7403 14.944 95.3723 14.432 94.8282 14.048C94.3163 13.632 93.5963 13.424 92.6683 13.424C92.0923 13.424 91.5323 13.504 90.9883 13.664C90.4443 13.824 89.9643 14.08 89.5483 14.432C90.5723 14.784 91.3243 15.312 91.8043 16.016C92.3163 16.72 92.5723 17.504 92.5723 18.368C92.5723 19.552 92.1563 20.496 91.3243 21.2C90.5243 21.872 89.5643 22.208 88.4443 22.208C87.2283 22.208 86.2843 21.824 85.6123 21.056C84.9723 20.288 84.6523 19.36 84.6523 18.272C84.6523 17.312 84.8923 16.512 85.3723 15.872C85.8523 15.2 86.5563 14.592 87.4843 14.048C88.4123 13.504 89.5323 13.104 90.8443 12.848C92.1563 12.592 93.5483 12.464 95.0203 12.464C96.5243 12.464 97.9003 12.624 99.1483 12.944C100.428 13.232 101.516 13.824 102.412 14.72C103.116 15.456 103.564 16.352 103.756 17.408C103.948 18.464 104.044 19.808 104.044 21.44V34.4C104.044 35.2 104.108 35.76 104.236 36.08C104.396 36.368 104.636 36.512 104.956 36.512C105.244 36.512 105.516 36.432 105.772 36.272C106.028 36.112 106.284 35.936 106.54 35.744L107.068 36.56C106.364 37.136 105.532 37.584 104.572 37.904C103.612 38.192 102.572 38.336 101.452 38.336C100.172 38.336 99.1643 38.176 98.4283 37.856C97.7243 37.504 97.2123 37.04 96.8923 36.464C96.6043 35.888 96.4443 35.248 96.4123 34.544C95.7083 35.696 94.8283 36.624 93.7723 37.328C92.7163 38 91.3883 38.336 89.7883 38.336ZM93.7723 34.88C94.2843 34.88 94.7323 34.784 95.1163 34.592C95.5323 34.368 95.9163 34 96.2682 33.488V23.504C96.0123 23.952 95.6603 24.384 95.2123 24.8C94.7963 25.184 94.3483 25.584 93.8683 26C93.3883 26.384 92.9243 26.816 92.4763 27.296C92.0603 27.776 91.7083 28.352 91.4203 29.024C91.1643 29.664 91.0363 30.448 91.0363 31.376C91.0363 32.624 91.2923 33.52 91.8043 34.064C92.3163 34.608 92.9723 34.88 93.7723 34.88ZM118.176 12.464C119.584 12.464 120.8 12.624 121.824 12.944C122.848 13.264 123.6 13.568 124.08 13.856C125.2 14.56 125.872 14.112 126.096 12.512H127.104C127.04 13.44 126.992 14.56 126.96 15.872C126.928 17.152 126.912 18.88 126.912 21.056H125.904C125.776 19.872 125.488 18.704 125.04 17.552C124.624 16.4 124 15.456 123.168 14.72C122.336 13.952 121.248 13.568 119.904 13.568C119.04 13.568 118.304 13.824 117.696 14.336C117.12 14.848 116.832 15.552 116.832 16.448C116.832 17.408 117.12 18.256 117.696 18.992C118.272 19.728 119.008 20.432 119.904 21.104C120.832 21.776 121.76 22.496 122.688 23.264C123.712 24.032 124.624 24.816 125.424 25.616C126.256 26.384 126.912 27.232 127.392 28.16C127.904 29.056 128.16 30.144 128.16 31.424C128.16 32.864 127.728 34.128 126.864 35.216C126 36.304 124.864 37.152 123.456 37.76C122.048 38.368 120.48 38.672 118.752 38.672C117.696 38.672 116.768 38.56 115.968 38.336C115.2 38.144 114.56 37.888 114.048 37.568C113.568 37.344 113.136 37.152 112.752 36.992C112.4 36.832 112.048 36.72 111.696 36.656C111.376 36.624 111.104 36.768 110.88 37.088C110.656 37.408 110.48 37.824 110.352 38.336H109.344C109.408 37.312 109.456 36.064 109.488 34.592C109.52 33.12 109.536 31.168 109.536 28.736H110.544C110.736 30.464 111.088 31.984 111.6 33.296C112.144 34.608 112.864 35.648 113.76 36.416C114.656 37.152 115.712 37.52 116.928 37.52C117.472 37.52 117.968 37.424 118.416 37.232C118.896 37.008 119.28 36.672 119.568 36.224C119.888 35.776 120.048 35.2 120.048 34.496C120.048 33.088 119.6 31.92 118.704 30.992C117.808 30.032 116.704 28.992 115.392 27.872C114.368 27.008 113.408 26.16 112.512 25.328C111.648 24.496 110.928 23.584 110.352 22.592C109.808 21.6 109.536 20.48 109.536 19.232C109.536 17.792 109.936 16.576 110.736 15.584C111.568 14.56 112.64 13.792 113.952 13.28C115.264 12.736 116.672 12.464 118.176 12.464ZM171.902 4.016V4.976C171.198 5.296 170.43 5.936 169.598 6.896C168.766 7.824 168.014 9.248 167.342 11.168L157.598 38.048C157.278 38.016 156.926 38 156.542 38C156.19 37.968 155.838 37.952 155.486 37.952C155.134 37.952 154.766 37.968 154.382 38C154.03 38 153.694 38.016 153.374 38.048L140.99 8.048C140.542 6.896 140.046 6.112 139.502 5.696C138.99 5.248 138.51 5.008 138.062 4.976V4.016C139.118 4.048 140.35 4.08 141.758 4.112C143.198 4.144 144.638 4.16 146.078 4.16C147.646 4.16 149.102 4.144 150.446 4.112C151.822 4.08 152.926 4.048 153.758 4.016V4.976C152.734 5.008 151.934 5.12 151.358 5.312C150.814 5.504 150.494 5.888 150.398 6.464C150.334 7.008 150.526 7.856 150.974 9.008L159.662 30.752L158.606 32.096L164.654 15.488C165.582 12.896 166.062 10.848 166.094 9.344C166.126 7.808 165.79 6.704 165.086 6.032C164.382 5.36 163.39 5.008 162.11 4.976V4.016C163.262 4.048 164.302 4.08 165.23 4.112C166.19 4.144 167.198 4.16 168.254 4.16C168.926 4.16 169.582 4.144 170.222 4.112C170.862 4.08 171.422 4.048 171.902 4.016ZM181.805 12.464C184.621 12.464 186.829 13.296 188.429 14.96C190.029 16.624 190.829 19.36 190.829 23.168H175.421L175.373 22.256H184.301C184.365 20.688 184.301 19.248 184.109 17.936C183.917 16.592 183.597 15.52 183.149 14.72C182.733 13.92 182.173 13.52 181.469 13.52C180.509 13.52 179.693 14.208 179.021 15.584C178.349 16.96 177.933 19.296 177.773 22.592L177.965 22.928C177.901 23.28 177.869 23.648 177.869 24.032C177.869 24.384 177.869 24.768 177.869 25.184C177.869 27.392 178.157 29.152 178.733 30.464C179.341 31.776 180.093 32.704 180.989 33.248C181.885 33.792 182.813 34.064 183.773 34.064C184.317 34.064 184.925 33.984 185.597 33.824C186.269 33.664 186.973 33.328 187.709 32.816C188.445 32.304 189.149 31.552 189.821 30.56L190.637 30.848C190.285 32.096 189.677 33.328 188.813 34.544C187.981 35.728 186.909 36.72 185.597 37.52C184.285 38.288 182.701 38.672 180.845 38.672C178.733 38.672 176.845 38.24 175.181 37.376C173.517 36.48 172.189 35.088 171.197 33.2C170.237 31.28 169.757 28.784 169.757 25.712C169.757 22.672 170.285 20.176 171.341 18.224C172.397 16.272 173.837 14.832 175.661 13.904C177.485 12.944 179.533 12.464 181.805 12.464ZM203.881 0.463997V33.536C203.881 34.88 204.089 35.792 204.505 36.272C204.953 36.752 205.705 36.992 206.761 36.992V38C206.153 37.968 205.225 37.936 203.977 37.904C202.729 37.84 201.449 37.808 200.137 37.808C198.857 37.808 197.545 37.84 196.201 37.904C194.889 37.936 193.897 37.968 193.225 38V36.992C194.281 36.992 195.017 36.752 195.433 36.272C195.881 35.792 196.105 34.88 196.105 33.536V6.176C196.105 4.768 195.897 3.728 195.48 3.056C195.097 2.352 194.345 2 193.225 2V0.991999C194.249 1.088 195.241 1.136 196.201 1.136C197.673 1.136 199.049 1.088 200.329 0.991999C201.609 0.863998 202.793 0.687998 203.881 0.463997ZM219.631 0.463997V33.536C219.631 34.88 219.839 35.792 220.255 36.272C220.703 36.752 221.455 36.992 222.511 36.992V38C221.903 37.968 220.975 37.936 219.727 37.904C218.479 37.84 217.199 37.808 215.887 37.808C214.607 37.808 213.295 37.84 211.951 37.904C210.639 37.936 209.647 37.968 208.975 38V36.992C210.031 36.992 210.767 36.752 211.183 36.272C211.631 35.792 211.855 34.88 211.855 33.536V6.176C211.855 4.768 211.647 3.728 211.23 3.056C210.847 2.352 210.095 2 208.975 2V0.991999C209.999 1.088 210.991 1.136 211.951 1.136C213.423 1.136 214.799 1.088 216.079 0.991999C217.359 0.863998 218.543 0.687998 219.631 0.463997ZM236.649 12.464C239.049 12.464 241.145 12.896 242.937 13.76C244.761 14.592 246.169 15.968 247.161 17.888C248.185 19.808 248.697 22.368 248.697 25.568C248.697 28.768 248.185 31.328 247.161 33.248C246.169 35.168 244.761 36.56 242.937 37.424C241.145 38.256 239.049 38.672 236.649 38.672C234.281 38.672 232.185 38.256 230.361 37.424C228.569 36.56 227.161 35.168 226.137 33.248C225.113 31.328 224.601 28.768 224.601 25.568C224.601 22.368 225.113 19.808 226.137 17.888C227.161 15.968 228.569 14.592 230.361 13.76C232.185 12.896 234.281 12.464 236.649 12.464ZM236.649 13.424C235.529 13.424 234.585 14.384 233.817 16.304C233.081 18.192 232.713 21.28 232.713 25.568C232.713 29.856 233.081 32.96 233.817 34.88C234.585 36.768 235.529 37.712 236.649 37.712C237.801 37.712 238.745 36.768 239.481 34.88C240.217 32.96 240.585 29.856 240.585 25.568C240.585 21.28 240.217 18.192 239.481 16.304C238.745 14.384 237.801 13.424 236.649 13.424ZM261.192 12.464C262.6 12.464 263.816 12.624 264.84 12.944C265.864 13.264 266.616 13.568 267.096 13.856C268.216 14.56 268.888 14.112 269.112 12.512H270.12C270.056 13.44 270.008 14.56 269.976 15.872C269.944 17.152 269.928 18.88 269.928 21.056H268.92C268.792 19.872 268.504 18.704 268.056 17.552C267.64 16.4 267.016 15.456 266.184 14.72C265.352 13.952 264.264 13.568 262.92 13.568C262.056 13.568 261.32 13.824 260.712 14.336C260.136 14.848 259.848 15.552 259.848 16.448C259.848 17.408 260.136 18.256 260.712 18.992C261.288 19.728 262.024 20.432 262.92 21.104C263.848 21.776 264.776 22.496 265.704 23.264C266.728 24.032 267.64 24.816 268.44 25.616C269.272 26.384 269.928 27.232 270.408 28.16C270.92 29.056 271.176 30.144 271.176 31.424C271.176 32.864 270.744 34.128 269.88 35.216C269.016 36.304 267.88 37.152 266.472 37.76C265.064 38.368 263.496 38.672 261.768 38.672C260.712 38.672 259.784 38.56 258.984 38.336C258.216 38.144 257.576 37.888 257.064 37.568C256.584 37.344 256.152 37.152 255.768 36.992C255.416 36.832 255.064 36.72 254.712 36.656C254.392 36.624 254.12 36.768 253.896 37.088C253.672 37.408 253.496 37.824 253.368 38.336H252.36C252.424 37.312 252.472 36.064 252.504 34.592C252.536 33.12 252.552 31.168 252.552 28.736H253.56C253.752 30.464 254.104 31.984 254.616 33.296C255.16 34.608 255.88 35.648 256.776 36.416C257.672 37.152 258.728 37.52 259.944 37.52C260.488 37.52 260.984 37.424 261.432 37.232C261.912 37.008 262.296 36.672 262.584 36.224C262.904 35.776 263.064 35.2 263.064 34.496C263.064 33.088 262.616 31.92 261.72 30.992C260.824 30.032 259.72 28.992 258.408 27.872C257.384 27.008 256.424 26.16 255.528 25.328C254.664 24.496 253.944 23.584 253.368 22.592C252.824 21.6 252.552 20.48 252.552 19.232C252.552 17.792 252.952 16.576 253.752 15.584C254.584 14.56 255.656 13.792 256.968 13.28C258.28 12.736 259.688 12.464 261.192 12.464ZM286.43 12.464C288.83 12.464 290.926 12.896 292.718 13.76C294.542 14.592 295.95 15.968 296.942 17.888C297.966 19.808 298.478 22.368 298.478 25.568C298.478 28.768 297.966 31.328 296.942 33.248C295.95 35.168 294.542 36.56 292.718 37.424C290.926 38.256 288.83 38.672 286.43 38.672C284.062 38.672 281.966 38.256 280.142 37.424C278.35 36.56 276.942 35.168 275.918 33.248C274.894 31.328 274.382 28.768 274.382 25.568C274.382 22.368 274.894 19.808 275.918 17.888C276.942 15.968 278.35 14.592 280.142 13.76C281.966 12.896 284.062 12.464 286.43 12.464ZM286.43 13.424C285.31 13.424 284.366 14.384 283.598 16.304C282.862 18.192 282.494 21.28 282.494 25.568C282.494 29.856 282.862 32.96 283.598 34.88C284.366 36.768 285.31 37.712 286.43 37.712C287.582 37.712 288.526 36.768 289.262 34.88C289.998 32.96 290.366 29.856 290.366 25.568C290.366 21.28 289.998 18.192 289.262 16.304C288.526 14.384 287.582 13.424 286.43 13.424Z" fill="#141414"/>
</svg>
